<?xml version="1.0" encoding="UTF-8"?>
<svg width="52px" height="52px" viewBox="0 0 52 52" version="1.1" xmlns="http://www.w3.org/2000/svg" xmlns:xlink="http://www.w3.org/1999/xlink">
    <!-- Generator: Sketch 61.2 (89653) - https://sketch.com -->
    <title>自动节点</title>
    <desc>Created with Sketch.</desc>
    <g id="页面-1" stroke="none" stroke-width="1" fill="none" fill-rule="evenodd">
        <g id="搜索引擎-流程设计03" transform="translate(-685.000000, -400.000000)">
            <g id="自动节点" transform="translate(686.000000, 401.000000)">
                <g id="编组-38">
                    <g>
                        <circle id="椭圆形" stroke="#38B4C1" stroke-width="2" fill="#FFFFFF" cx="25" cy="25" r="25"></circle>
                        <g id="任务" transform="translate(10.000000, 10.000000)" fill="#38B4C1" fill-rule="nonzero">
                            <path d="M15.3846154,30.7692308 C23.8813089,30.7692308 30.7692308,23.8817657 30.7692308,15.3856356 C30.7692308,6.88746512 23.8813089,0 15.3846154,0 C6.88792187,0 0,6.88746512 0,15.3835952 C0,23.8817657 6.88792192,30.7692308 15.3846154,30.7692308 Z" id="路径"></path>
                        </g>
                    </g>
                </g>
                <g id="zifongpeizhi" transform="translate(17.000000, 16.000000)" fill="#FFFFFF" fill-rule="nonzero">
                    <g id="编组-42" transform="translate(4.000000, 4.985714)">
                        <path d="M0.997584541,5.76330491 C1.14009662,5.77580123 1.26811594,5.86327551 1.33816425,5.99323728 C1.53140097,6.35812996 1.78743961,6.6830344 2.0942029,6.95545428 C2.20531401,7.05292561 2.26086957,7.20538077 2.24154589,7.35533667 L2.12318841,8.22508086 C2.30434783,8.33004999 2.49275362,8.42252279 2.68599034,8.5 L3.28019324,7.85269039 C3.37922705,7.74522199 3.52415459,7.69523669 3.66425121,7.72022934 C3.85748792,7.75521905 4.0531401,7.77271391 4.25120773,7.77271391 C4.44927536,7.77271391 4.647343,7.75521905 4.83816425,7.72022934 C4.98067633,7.69523669 5.12560386,7.74272273 5.22222222,7.85269039 L5.81642512,8.5 C6.00966184,8.42252279 6.20048309,8.33004999 6.37922705,8.22508086 L6.26086957,7.35533667 C6.23913043,7.20538077 6.29468599,7.05292561 6.40821256,6.95545428 C6.71497585,6.68553367 6.97342995,6.35812996 7.16425121,5.99323728 C7.23429952,5.86327551 7.35990338,5.77580123 7.50483092,5.76330491 L8.3647343,5.68832696 C8.42512077,5.49088503 8.46859903,5.28844457 8.5,5.08100559 L7.76328502,4.63363717 C7.63768116,4.55615995 7.55797101,4.41870038 7.5531401,4.26874449 C7.53623188,3.84386945 7.44444444,3.43149074 7.28019324,3.0491032 C7.21980676,2.90914437 7.23429952,2.74919141 7.31642512,2.6217289 L7.78743961,1.89444281 C7.66908213,1.72199353 7.5410628,1.55704205 7.40096618,1.40458689 L6.59178744,1.72199353 C6.4589372,1.77447809 6.30676329,1.75448398 6.19082126,1.6670097 C5.86956522,1.42957954 5.50724638,1.25213173 5.12318841,1.14466333 C4.98309179,1.1046751 4.86956522,0.994707439 4.82608696,0.852249338 L4.56521739,0.0124963244 C4.46135266,0.00499852972 4.35507246,0 4.25120773,0 C4.147343,0 4.0410628,0.00499852972 3.93719807,0.0124963244 L3.6763285,0.852249338 C3.63285024,0.994707439 3.51932367,1.10717436 3.37922705,1.14466333 C2.99516908,1.25213173 2.63285024,1.42957954 2.3115942,1.6670097 C2.19565217,1.75448398 2.04347826,1.77447809 1.91062802,1.72199353 L1.10144928,1.40458689 C0.961352657,1.55954131 0.830917874,1.72199353 0.714975845,1.89444281 L1.18599034,2.6217289 C1.26811594,2.74919141 1.28019324,2.90914437 1.22222222,3.0491032 C1.05797101,3.43149074 0.963768116,3.84386945 0.949275362,4.26874449 C0.944444444,4.41870038 0.864734299,4.55615995 0.739130435,4.63363717 L0,5.08100559 C0.0314009662,5.28594531 0.077294686,5.49088503 0.135265701,5.68832696 L0.997584541,5.76330491 L0.997584541,5.76330491 Z" id="路径"></path>
                        <path d="M4.25,5.95 C3.30793037,5.95 2.55,5.1862782 2.55,4.25 C2.55,3.3137218 3.30957447,2.55 4.25,2.55 C5.19206963,2.55 5.95,3.3137218 5.95,4.25 C5.95,5.1862782 5.19206963,5.95 4.25,5.95 Z" id="路径"></path>
                    </g>
                    <path d="M5.29883875,1.31053129 C5.48288238,1.23651138 5.69119551,1.33379469 5.76198152,1.52624647 C5.83276754,1.71869825 5.73973449,1.93652828 5.55569085,2.0105482 C5.32310824,2.1036018 5.09659299,2.20722968 4.87614512,2.32354669 C2.3480732,3.64956059 0.717972426,6.3565746 0.717972426,9.36601283 C0.717972426,9.74880153 0.744264374,10.1273605 0.794825812,10.4995749 C0.823140218,10.7047159 0.687635563,10.8950528 0.491457182,10.9246607 C0.2952788,10.9542687 0.113257622,10.8125734 0.0849432166,10.6074325 C0.0283144055,10.1992656 0,9.78475406 0,9.36601283 C0,6.06895436 1.78583001,3.10604293 4.55255192,1.65313775 C4.79524682,1.52624647 5.0440091,1.41204432 5.29883875,1.31053129 Z M3.35769233,16.1487746 C3.19544668,16.0203659 3.16594747,15.7806697 3.29447974,15.6158785 C3.42090491,15.4510874 3.65689858,15.4211253 3.81914422,15.5516742 C5.1887503,16.641008 6.87441931,17.2423887 8.65280013,17.2423887 C10.4522518,17.2423887 12.1589917,16.6260269 13.5370261,15.5110114 C13.6992718,15.3804626 13.9331583,15.4082845 14.0616906,15.5709355 C14.1902229,15.7335865 14.1628307,15.9732827 14.0026922,16.1038316 C12.4898042,17.3237142 10.6208187,18 8.65069304,18 C6.70374533,18 4.85793775,17.3408354 3.35769233,16.1487746 L3.35769233,16.1487746 Z M16.0582615,9.72221882 C16.0722719,9.53792351 16.0782764,9.35158047 16.0782764,9.16318971 C16.0782764,5.9257354 14.0887978,3.07530124 11.162623,1.99000663 C10.9784862,1.92243168 10.8824148,1.71356366 10.9504653,1.5251729 C11.0185159,1.33678214 11.2206661,1.2384913 11.404803,1.30811398 C14.611186,2.49579487 16.7888044,5.61857655 16.7888044,9.16318971 C16.7888044,9.37205773 16.7807985,9.57887802 16.7667881,9.78569832 L17.4332834,9.27376689 C17.5893995,9.15295108 17.8135661,9.18571469 17.9296523,9.34748502 C18.0457386,9.50925535 18.0157163,9.7365529 17.8575988,9.85532099 L16.5506274,10.8566588 C16.4045188,10.967236 16.2003671,10.9488065 16.0762749,10.8116089 L15.017488,9.64030979 C14.8853898,9.49287354 14.8933958,9.26352827 15.0375029,9.12633064 C15.18161,8.99118075 15.4057766,8.99937165 15.5398762,9.1468079 L16.0582615,9.72221882 L16.0582615,9.72221882 Z M3.46980961,17.1944141 C3.48816445,17.3862422 3.32297088,17.5526237 3.09812407,17.5702406 C2.87327727,17.5859 2.67825708,17.4449651 2.65760788,17.253137 L2.50159173,15.6617469 C2.48323689,15.4836208 2.62548691,15.325069 2.83197887,15.2917927 L4.58945493,15.006008 C4.80971302,14.9707743 5.02308805,15.0940923 5.06438644,15.2820055 C5.10568484,15.4699188 4.96114046,15.6519597 4.74088237,15.6871934 L3.34362007,15.9122978 L3.46980961,17.1944141 L3.46980961,17.1944141 Z M4.73873477,3.34498152 L5.07998791,1.94005471 L4.05263637,1.40537715 C3.89099015,1.32036566 3.81375917,1.08770262 3.8820098,0.886359603 C3.95026043,0.68501659 4.13705162,0.588819372 4.29869784,0.673830867 L5.59007154,1.34721139 C5.74094134,1.42551145 5.81996838,1.6335659 5.77147452,1.82819748 L5.3476022,3.57540741 C5.29731227,3.785699 5.11950143,3.90426767 4.95067093,3.83939047 C4.78184043,3.77675042 4.68664877,3.55527311 4.73873477,3.34498152 L4.73873477,3.34498152 Z M8.67857143,3.21428571 C9.56584821,3.21428571 10.2857143,2.494888 10.2857143,1.60818849 C10.2857143,0.721488986 9.56584821,0 8.67857143,0 C7.79129464,0 7.07142857,0.719397713 7.07142857,1.60609722 C7.07142857,2.49279673 7.78920201,3.21428571 8.67857143,3.21428571 Z M15.1071429,14.7857143 C14.2198661,14.7857143 13.5,14.0658482 13.5,13.1785714 C13.5,12.2912946 14.2198661,11.5714286 15.1071429,11.5714286 C15.9944196,11.5714286 16.7142857,12.2912946 16.7142857,13.1785714 C16.7142857,14.0658482 15.9944196,14.7857143 15.1071429,14.7857143 Z M1.60714286,14.7857143 C0.719866071,14.7857143 0,14.0658482 0,13.1785714 C0,12.2912946 0.719866071,11.5714286 1.60714286,11.5714286 C2.49441964,11.5714286 3.21428571,12.2912946 3.21428571,13.1785714 C3.21428571,14.0658482 2.49441964,14.7857143 1.60714286,14.7857143 Z" id="形状" stroke="#FFFFFF" stroke-width="0.6"></path>
                </g>
            </g>
        </g>
    </g>
</svg>