<?xml version="1.0" encoding="UTF-8"?>
<svg width="52px" height="52px" viewBox="0 0 52 52" version="1.1" xmlns="http://www.w3.org/2000/svg" xmlns:xlink="http://www.w3.org/1999/xlink">
    <!-- Generator: Sketch 61.2 (89653) - https://sketch.com -->
    <title>判断节点01</title>
    <desc>Created with Sketch.</desc>
    <g id="页面-1" stroke="none" stroke-width="1" fill="none" fill-rule="evenodd">
        <g id="搜索引擎-流程设计03备份" transform="translate(-378.000000, -421.000000)">
            <g id="判断节点01" transform="translate(379.000000, 422.000000)">
                <circle id="椭圆形" stroke="#A8B5C9" stroke-width="2" fill="#FFFFFF" cx="25" cy="25" r="25"></circle>
                <path d="M28.5355339,14.5355339 L36.4644661,22.4644661 C38.4170876,24.4170876 38.4170876,27.5829124 36.4644661,29.5355339 L28.5355339,37.4644661 C26.5829124,39.4170876 23.4170876,39.4170876 21.4644661,37.4644661 L13.5355339,29.5355339 C11.5829124,27.5829124 11.5829124,24.4170876 13.5355339,22.4644661 L21.4644661,14.5355339 C23.4170876,12.5829124 26.5829124,12.5829124 28.5355339,14.5355339 Z" id="多边形备份-3" fill="#A8B5C9"></path>
                <path d="M24.6867005,31 L24.6867004,31 C24.2704409,31.0036343 23.8729405,31.1685968 23.5826299,31.4581875 C23.294612,31.7470799 23.125,32.155565 23.125,32.5625 C23.125,32.9709873 23.2946107,33.3779201 23.5826299,33.6668125 C23.8706478,33.9557048 24.2802744,34.125 24.6867004,34.125 C25.0979261,34.125 25.502753,33.9557033 25.7907709,33.6668125 C26.0787888,33.3779201 26.25,32.9709873 26.25,32.5640544 C26.25,32.1555671 26.0803893,31.747082 25.7923701,31.4581897 L25.7923701,31.4581897 C25.502578,31.1678682 25.1047472,31.0027669 24.6882996,31 L24.6867005,31 Z M24.3608984,20.375 C23.2667172,20.375 22.3841084,20.7277244 21.7114896,21.4380997 L21.7114898,21.4380994 C21.0550458,22.1292284 20.6679162,23.0502476 20.6252028,24.0224868 C20.6030981,24.9207602 22.3951545,24.7361611 22.4614685,24.2911448 C22.5325192,23.8197568 22.8246176,23.059935 23.16724,22.715459 C23.5098624,22.3709829 23.9377453,22.1979212 24.4461528,22.1979212 C24.9750869,22.1979212 25.3966536,22.3627419 25.706119,22.6923841 C26.0171624,23.022026 26.1734752,23.419243 26.1734752,23.8856847 L26.1734752,23.8856819 C26.1756801,24.2121239 26.0844122,24.5318103 25.9113794,24.8037334 C25.7961193,24.9800916 25.4456034,25.3509372 24.8629855,25.916272 C24.2819479,26.4849034 23.89038,26.9941982 23.6961741,27.4491047 C23.5019688,27.9007123 23.4040773,28.4775845 23.4040773,29.1813685 C23.4040773,29.2505932 23.4056562,29.4417858 23.4119718,29.75 L25.2277108,29.75 C25.2166584,29.094013 25.2656045,28.6374614 25.3666544,28.3819882 C25.4692833,28.1248677 25.7313815,27.7886346 26.1529482,27.3716371 C26.969243,26.5607193 27.5029111,25.9195664 27.7523787,25.4514775 C28.0018463,24.9800895 28.125,24.4823322 28.125,23.9549065 C28.125,23.0038922 27.7855357,22.16825 27.1066072,21.4529262 C26.4245205,20.734308 25.5103347,20.375 24.3593031,20.375 L24.3608984,20.375 Z" id="形状" fill="#FFFFFF" fill-rule="nonzero"></path>
            </g>
        </g>
    </g>
</svg>