<?xml version="1.0" encoding="UTF-8"?>
<svg width="52px" height="52px" viewBox="0 0 52 52" version="1.1" xmlns="http://www.w3.org/2000/svg" xmlns:xlink="http://www.w3.org/1999/xlink">
    <!-- Generator: Sketch 61.2 (89653) - https://sketch.com -->
    <title>合并01</title>
    <desc>Created with Sketch.</desc>
    <g id="页面-1" stroke="none" stroke-width="1" fill="none" fill-rule="evenodd">
        <g id="搜索引擎-流程设计03备份" transform="translate(-836.000000, -558.000000)">
            <g id="合并01" transform="translate(837.000000, 559.000000)">
                <g id="合并">
                    <g id="编组-33">
                        <g>
                            <circle id="椭圆形" stroke="#A8B5C9" stroke-width="2" fill="#FFFFFF" cx="25" cy="25" r="25"></circle>
                            <g id="任务" transform="translate(10.000000, 10.000000)" fill="#A8B5C9" fill-rule="nonzero">
                                <path d="M15.3846154,30.7692308 C23.8813089,30.7692308 30.7692308,23.8817657 30.7692308,15.3856356 C30.7692308,6.88746512 23.8813089,0 15.3846154,0 C6.88792187,0 0,6.88746512 0,15.3835952 C0,23.8817657 6.88792192,30.7692308 15.3846154,30.7692308 Z" id="路径"></path>
                            </g>
                        </g>
                    </g>
                    <g id="编组-37" transform="translate(15.002148, 18.471129)" fill="#FFFFFF" fill-rule="nonzero">
                        <polygon id="路径" points="9.44944459 2.72277661 10.3491878 2.72277661 10.3491878 4.54797209 9.44944459 4.54797209"></polygon>
                        <path d="M1.09468877,13.4168906 L7.25578969,7.25578969 C7.37575565,7.13582373 7.44430749,6.97301397 7.44430749,6.80163291 C7.44430749,6.63025303 7.37575565,6.46744307 7.25578969,6.34747614 L1.09468877,0.186375217 C0.846188485,-0.0621250723 0.434877459,-0.0621250723 0.186375217,0.186375217 C-0.0621250723,0.434875506 -0.0621250723,0.846186532 0.186375217,1.09468877 L5.89331545,6.80162901 L0.186375217,12.5085692 C-0.0621250723,12.7570695 -0.0621250723,13.1683806 0.186375217,13.4168828 C0.314910132,13.5454177 0.477721259,13.6054006 0.640531995,13.6054006 C0.803342732,13.6054006 0.974721837,13.5454177 1.09468877,13.4168828 L1.09468877,13.4168906 Z" id="路径" transform="translate(3.722154, 6.802700) scale(-1, 1) translate(-3.722154, -6.802700) "></path>
                        <path d="M19.809359,13.4168906 C20.0578593,13.1683903 20.0578593,12.7570793 19.809359,12.5085771 L14.1024188,6.80163682 L19.809359,1.09469659 C20.0578593,0.846196297 20.0578593,0.434885272 19.809359,0.186383029 C19.5608587,-0.0621172598 19.1495477,-0.0621172598 18.9010454,0.186383029 L12.7399445,6.34748395 C12.6199786,6.46744991 12.5514267,6.63025967 12.5514267,6.80164073 C12.5514267,6.97302061 12.6199786,7.13583057 12.7399445,7.25579751 L18.9010454,13.4168984 C19.0295803,13.5454333 19.1923915,13.6054162 19.3552022,13.6054162 C19.5180129,13.6054162 19.6808237,13.5368644 19.809359,13.4168984 L19.809359,13.4168906 Z" id="路径" transform="translate(16.273580, 6.802712) scale(-1, 1) translate(-16.273580, -6.802712) "></path>
                    </g>
                </g>
                <polygon id="路径" fill="#FFFFFF" fill-rule="nonzero" points="24.451593 30.6797765 25.3513363 30.6797765 25.3513363 32.5135403 24.451593 32.5135403"></polygon>
                <polygon id="路径" fill="#FFFFFF" fill-rule="nonzero" points="24.451593 27.5178196 25.3513363 27.5178196 25.3513363 29.3515835 24.451593 29.3515835"></polygon>
                <polygon id="路径" fill="#FFFFFF" fill-rule="nonzero" points="24.451593 24.3558628 25.3513363 24.3558628 25.3513363 26.1810583 24.451593 26.1810583"></polygon>
                <polygon id="路径" fill="#FFFFFF" fill-rule="nonzero" points="24.451593 18.0405235 25.3513363 18.0405235 25.3513363 19.8657189 24.451593 19.8657189 24.451593 18.0405235"></polygon>
            </g>
        </g>
    </g>
</svg>