<?xml version="1.0" encoding="UTF-8"?>
<svg width="52px" height="52px" viewBox="0 0 52 52" version="1.1" xmlns="http://www.w3.org/2000/svg" xmlns:xlink="http://www.w3.org/1999/xlink">
    <!-- Generator: Sketch 61.2 (89653) - https://sketch.com -->
    <title>等待01</title>
    <desc>Created with Sketch.</desc>
    <g id="页面-1" stroke="none" stroke-width="1" fill="none" fill-rule="evenodd">
        <g id="搜索引擎-流程设计03备份" transform="translate(-791.000000, -400.000000)">
            <g id="等待01" transform="translate(792.000000, 401.000000)">
                <g id="等待节点">
                    <g id="编组-38">
                        <circle id="椭圆形" stroke="#A8B5C9" stroke-width="2" fill="#FFFFFF" cx="25" cy="25" r="25"></circle>
                        <g id="任务" transform="translate(10.000000, 10.000000)" fill="#A8B5C9" fill-rule="nonzero">
                            <path d="M15.3846154,30.7692308 C23.8813089,30.7692308 30.7692308,23.8817657 30.7692308,15.3856356 C30.7692308,6.88746512 23.8813089,0 15.3846154,0 C6.88792187,0 0,6.88746512 0,15.3835952 C0,23.8817657 6.88792192,30.7692308 15.3846154,30.7692308 Z" id="路径"></path>
                        </g>
                    </g>
                </g>
                <g id="peizhizhong" transform="translate(17.000000, 17.000000)" fill="#FFFFFF" fill-rule="nonzero">
                    <path d="M13.6375713,2.88858684 L13.7192689,2.88858684 C14.1858638,2.88858684 14.5675775,2.52844731 14.5675775,2.08811075 L14.5675775,1.4522976 L15.151554,1.4522976 C15.6182634,1.4522976 16,1.09213866 16,0.651802107 L16,0 L0,0 L0,0.651782703 C0,1.09211926 0.381828156,1.4522782 0.848423058,1.4522782 L1.41103042,1.4522782 L1.41103042,2.08809135 C1.41103042,2.5284279 1.79272117,2.88856744 2.2594764,2.88856744 L2.34321246,2.88856744 C2.34369344,4.81894251 2.98586838,6.64034432 4.60149788,7.89206205 C4.74350105,8.01265835 5.08073565,8.30034308 5.25219301,8.45788473 C5.38359174,8.59718654 5.48711663,8.73623611 5.4942855,8.8349058 C5.51164653,9.07118916 5.20191931,9.36909984 4.95506285,9.5672542 L4.95506285,9.5672542 C4.95126701,9.57044264 4.94788825,9.57396871 4.94498523,9.57777119 C3.0772772,10.8289844 2.34442638,12.7650255 2.34323538,14.8257183 L2.25949932,14.8257183 C1.7927899,14.8257183 1.41105334,15.1858578 1.41105334,15.6261944 L1.41105334,16.2620075 L0.848400174,16.2620075 C0.381805272,16.2620075 0,16.6221665 0,17.062503 L0,17.7142857 L16,17.7142857 L16,17.062503 C16,16.6222635 15.6181489,16.2620075 15.151554,16.2620075 L14.5675775,16.2620075 L14.5675775,15.6261944 C14.5675775,15.1859548 14.1858638,14.8257183 13.7191544,14.8257183 L13.6375484,14.8257183 C13.6363345,12.7698183 12.8908179,10.8447599 11.0342411,9.59277054 L11.0342411,9.59277054 C11.0308566,9.58305355 11.0244487,9.57428698 11.0156891,9.56739002 C10.7689242,9.36921626 10.4592199,9.07122796 10.4765809,8.8349252 C10.4836811,8.73635252 10.5872518,8.59720594 10.7186276,8.45800114 C10.9392822,8.25511219 11.4349648,7.83644998 11.4349648,7.83644998 L11.4306589,7.83365579 C12.9984655,6.58415013 13.6370445,4.79239773 13.6375713,2.88858683 L13.6375713,2.88858684 Z M11.282127,6.7862888 C11.282127,6.7862888 11.1282506,6.95173082 10.7838228,7.20091114 C10.620379,7.35034437 10.4487188,7.48701697 10.2699937,7.60841251 C9.98660254,7.85902059 9.67541712,8.18690634 9.61314017,8.46239319 L9.5957106,8.46239319 C9.54727543,8.69815254 9.46468982,9.4754088 10.2886192,10.1028927 C10.644054,10.3734181 10.7424746,10.4577632 10.7234283,10.4551219 C10.7435598,10.4728975 10.7638906,10.4902805 10.7838006,10.5084845 C11.1282506,10.7577005 11.2820162,10.9230711 11.2820162,10.9230711 C12.4885324,11.8315745 12.6181801,13.8420788 12.6315789,14.3401361 L11.0982638,14.3401361 C11.1389033,13.0688917 10.2849871,12.1998303 10.1319745,12.0196109 C9.97750018,11.8377853 9.70733073,11.5865704 9.08967717,10.9456476 C8.47200147,10.304707 8.7229253,9.274005 8.85806539,8.72834972 C8.99316119,8.18269444 9.83279265,7.42048322 10.1319745,7.100004 C10.4311563,6.77956046 10.4022325,6.54565721 10.4022325,6.54565721 L6.46472152,6.54565721 C6.46472152,6.54565721 6.43570914,6.77954262 6.73489097,7.100004 C7.03405065,7.42048322 7.87368211,8.18269444 8.0087779,8.72836757 C8.14394014,9.274005 8.39486398,10.304707 7.77716612,10.9456476 C7.15949042,11.5865704 6.88923238,11.8377853 6.73489097,12.0196109 C6.58187837,12.1998659 5.72798433,13.0689095 5.76860166,14.3401361 L4.21052632,14.3401361 C4.22392516,13.8421681 4.35355069,11.8316637 5.56000046,10.9230711 C5.56000046,10.9230711 5.71387679,10.7577005 6.05830463,10.5084845 C6.07814821,10.4903519 6.09856761,10.4728975 6.1186991,10.4551219 C6.09965281,10.4577632 6.19809556,10.3734181 6.55337537,10.1028749 C7.3773933,9.4754088 7.29485198,8.69817038 7.24643896,8.46241104 L7.22894295,8.46241104 C7.16671029,8.18692419 6.85539199,7.85900275 6.57213375,7.60841251 C6.39336436,7.48703482 6.22168196,7.35034437 6.05823819,7.20091114 C5.71385464,6.95171297 5.56002261,6.7862888 5.56002261,6.7862888 C4.35744853,5.88067664 4.22474459,3.88025591 4.21052632,3.37414966 L12.6314018,3.37414966 C12.6173828,3.88025591 12.4847232,5.88067664 11.282127,6.7862888 L11.282127,6.7862888 Z" id="形状"></path>
                </g>
            </g>
        </g>
    </g>
</svg>