<?xml version="1.0" encoding="UTF-8"?>
<svg width="52px" height="48px" viewBox="0 0 52 48" version="1.1" xmlns="http://www.w3.org/2000/svg" xmlns:xlink="http://www.w3.org/1999/xlink">
    <!-- Generator: Sketch 61.2 (89653) - https://sketch.com -->
    <title>分支01</title>
    <desc>Created with Sketch.</desc>
    <g id="页面-1" stroke="none" stroke-width="1" fill="none" fill-rule="evenodd">
        <g id="搜索引擎-流程设计03备份" transform="translate(-418.000000, -559.000000)">
            <g id="分支01" transform="translate(419.000000, 560.000000)">
                <g id="分支" transform="translate(0.000000, 0.000000)">
                    <path d="M26.7084709,45.4545455 C39.260397,45.4545455 49.4357436,35.2791989 49.4357436,22.7272727 C49.4357436,10.1753466 39.260397,0 26.7084709,0 C26.0593753,0 26.4849586,45.4545455 26.7084709,45.4545455 Z" id="椭圆形" stroke="#A8B5C9" stroke-width="2" fill="#FFFFFF"></path>
                    <path d="M0.344834539,45.4545455 C12.8967607,45.4545455 23.0721073,35.2791989 23.0721073,22.7272727 C23.0721073,10.1753466 12.8967607,0 0.344834539,0 C-0.304261041,0 0.121322187,45.4545455 0.344834539,45.4545455 Z" id="椭圆形备份-2" stroke="#A8B5C9" stroke-width="2" fill="#FFFFFF" transform="translate(11.536054, 22.727273) scale(-1, 1) translate(-11.536054, -22.727273) "></path>
                    <g id="任务" transform="translate(9.090909, 9.090909)" fill="#A8B5C9" fill-rule="nonzero">
                        <path d="M16.7132867,27.972028 C24.4375535,27.972028 30.6993007,21.710696 30.6993007,13.9869415 C30.6993007,6.26133192 24.4375535,0 16.7132867,0 C16.2701247,0 16.188806,27.972028 16.7132867,27.972028 Z" id="路径"></path>
                        <path d="M0.36350445,27.972028 C8.08777126,27.972028 14.3495184,21.710696 14.3495184,13.9869415 C14.3495184,6.26133192 8.08777122,7.91286228e-14 0.363504409,7.91286228e-14 C-0.0796575621,7.91286228e-14 -0.160976248,27.972028 0.36350445,27.972028 Z" id="路径备份" transform="translate(7.174759, 13.986014) scale(-1, 1) translate(-7.174759, -13.986014) "></path>
                    </g>
                </g>
                <g id="合并" transform="translate(15.000000, 16.000000)" fill="#FFFFFF" fill-rule="nonzero">
                    <path d="M9.45159303,12.6797765 L10.3513363,12.6797765 L10.3513363,14.5135403 L9.45159303,14.5135403 L9.45159303,12.6797765 Z M9.45159303,9.51781965 L10.3513363,9.51781965 L10.3513363,11.3515835 L9.45159303,11.3515835 L9.45159303,9.51781965 Z M9.45159303,6.35586284 L10.3513363,6.35586284 L10.3513363,8.18105833 L9.45159303,8.18105833 L9.45159303,6.35586284 Z M9.45159303,3.19390604 L10.3513363,3.19390604 L10.3513363,5.01910152 L9.45159303,5.01910152 L9.45159303,3.19390604 Z M9.45159303,0.0405234622 L10.3513363,0.0405234622 L10.3513363,1.86571895 L9.45159303,1.86571895 L9.45159303,0.0405234622 L9.45159303,0.0405234622 Z M1.09683721,13.88802 L7.25793813,7.72691913 C7.37790409,7.60695317 7.44645593,7.44414341 7.44645593,7.27276235 C7.44645593,7.10138246 7.37790409,6.9385725 7.25793813,6.81860557 L1.09683721,0.657504649 C0.848336925,0.40900436 0.437025899,0.40900436 0.188523657,0.657504649 C-0.0599766323,0.906004938 -0.0599766323,1.31731596 0.188523657,1.56581821 L5.89546389,7.27275844 L0.188523657,12.9796987 C-0.0599766323,13.228199 -0.0599766323,13.63951 0.188523657,13.8880122 C0.317058572,14.0165471 0.479869699,14.07653 0.642680435,14.07653 C0.805491172,14.07653 0.976870277,14.0165471 1.09683721,13.8880122 L1.09683721,13.88802 Z M19.8115074,13.88802 C20.0600077,13.6395198 20.0600077,13.2282087 19.8115074,12.9797065 L14.1045672,7.27276625 L19.8115074,1.56582602 C20.0600077,1.31732573 20.0600077,0.906014704 19.8115074,0.657512461 C19.5630071,0.409012172 19.1516961,0.409012172 18.9031939,0.657512461 L12.742093,6.81861338 C12.622127,6.93857934 12.5535752,7.1013891 12.5535752,7.27277016 C12.5535752,7.44415005 12.622127,7.60696 12.742093,7.72692694 L18.9031939,13.8880279 C19.0317288,14.0165628 19.1945399,14.0765457 19.3573506,14.0765457 C19.5201614,14.0765457 19.6829721,14.0079938 19.8115074,13.8880279 L19.8115074,13.88802 Z" id="形状"></path>
                </g>
            </g>
        </g>
    </g>
</svg>