<?xml version="1.0" encoding="UTF-8"?>
<svg width="52px" height="50px" viewBox="0 0 52 50" version="1.1" xmlns="http://www.w3.org/2000/svg" xmlns:xlink="http://www.w3.org/1999/xlink">
    <!-- Generator: Sketch 61.2 (89653) - https://sketch.com -->
    <title>循环节点01</title>
    <desc>Created with Sketch.</desc>
    <g id="页面-1" stroke="none" stroke-width="1" fill="none" fill-rule="evenodd">
        <g id="搜索引擎-流程设计03备份" transform="translate(-383.000000, -268.000000)">
            <g id="循环节点01" transform="translate(384.000000, 269.000000)">
                <rect id="矩形备份" stroke="#A8B5C9" stroke-width="2" fill="#FFFFFF" x="0" y="-1.24344979e-13" width="50" height="47.2727273" rx="5"></rect>
                <g id="任务" transform="translate(10.000000, 10.000000)" fill="#A8B5C9" fill-rule="nonzero">
                    <path d="M15.3846154,30.7692308 C23.8813089,30.7692308 30.7692308,23.8817657 30.7692308,15.3856356 C30.7692308,6.88746512 23.8813089,0 15.3846154,0 C6.88792187,0 0,6.88746512 0,15.3835952 C0,23.8817657 6.88792192,30.7692308 15.3846154,30.7692308 Z" id="路径"></path>
                </g>
                <g id="编组-16" transform="translate(16.153846, 15.384615)">
                    <path d="M7.44939271,4.91452991 L12.9438318,4.91452991 C15.5663426,4.91452991 17.6923077,7.3348709 17.6923077,10.3205128 C17.6923077,13.3061547 16.4975167,15.7264957 13.8750058,15.7264957 L13.6735226,15.7264957 M10.242915,15.7264957 L4.76959559,15.7264957 C2.13542068,15.7264957 0,13.3061547 0,10.3205128 C0,7.3348709 1.2042466,4.91452991 3.8384215,4.91452991" id="形状" stroke="#FBFBFB" stroke-width="2" stroke-linecap="round"></path>
                    <path d="M11.7948718,1.20710678 L11.7948718,4.91452991 L11.7948718,4.91452991 L8.08744866,4.91452991 C7.81130629,4.91452991 7.58744866,4.69067229 7.58744866,4.41452991 C7.58744866,4.28192167 7.64012708,4.15474471 7.73389527,4.06097652 L10.9413184,0.853553391 C11.1365806,0.658291245 11.453163,0.658291245 11.6484252,0.853553391 C11.7421934,0.94732158 11.7948718,1.07449854 11.7948718,1.20710678 Z" id="矩形" fill="#FFFFFF"></path>
                    <path d="M11.7948718,16.9336025 L11.7948718,20.6410256 L11.7948718,20.6410256 L8.08744866,20.6410256 C7.81130629,20.6410256 7.58744866,20.417168 7.58744866,20.1410256 C7.58744866,20.0084174 7.64012708,19.8812404 7.73389527,19.7874723 L10.9413184,16.5800491 C11.1365806,16.384787 11.453163,16.384787 11.6484252,16.5800491 C11.7421934,16.6738173 11.7948718,16.8009943 11.7948718,16.9336025 Z" id="矩形备份-3" fill="#FFFFFF" transform="translate(9.337607, 18.183761) rotate(-180.000000) translate(-9.337607, -18.183761) "></path>
                </g>
            </g>
        </g>
    </g>
</svg>