<?xml version="1.0" encoding="UTF-8"?>
<svg width="35px" height="35px" viewBox="0 0 35 35" version="1.1" xmlns="http://www.w3.org/2000/svg" xmlns:xlink="http://www.w3.org/1999/xlink">
    <!-- Generator: Sketch 61.2 (89653) - https://sketch.com -->
    <title>开始01</title>
    <desc>Created with Sketch.</desc>
    <g id="页面-1" stroke="none" stroke-width="1" fill="none" fill-rule="evenodd">
        <g id="搜索引擎-流程设计03备份" transform="translate(-167.000000, -275.000000)" fill="#A8B5C9" fill-rule="nonzero">
            <g id="开始01" transform="translate(167.000000, 275.000000)">
                <path d="M17.4998915,35 C7.83777249,35 0,27.169707 0,17.4831152 C0,7.83025879 7.8378067,0 17.4998915,0 C27.1620106,0 34.9998919,7.83029297 34.9998919,17.4831152 C35.0335667,27.169707 27.1957783,35 17.4998915,35 Z M17.4998915,1.99130859 C8.95265475,1.99130859 1.9932194,8.94407227 1.9932194,17.4831152 C1.9932194,26.0221582 8.95265475,32.9749219 17.4998915,32.9749219 C26.0809303,32.9749219 33.0065637,26.0221582 33.0065637,17.4831152 C33.0065637,8.94407227 26.0809303,1.99130859 17.4998915,1.99130859 Z M14.4931512,25.1783984 C14.0539655,25.1783984 13.6147764,25.0433938 13.243157,24.8408863 C12.4661333,24.4021217 11.9931628,23.5583414 11.9931628,22.6808087 L11.9931628,12.2854327 C11.9931628,10.9016339 13.1080211,9.78784434 14.4931478,9.78784434 C14.9323335,9.78784434 15.3715226,9.8890979 15.743142,10.1253564 L24.7633664,15.3230273 C25.945791,15.9980522 26.3849801,17.5506064 25.6755226,18.7318975 C25.4728211,19.1031606 25.1349858,19.4406714 24.7633664,19.6431792 L15.7769439,24.8408501 C15.3715397,25.0771086 14.9661388,25.1783984 14.4931628,25.1783984" id="形状"></path>
            </g>
        </g>
    </g>
</svg>