<?xml version="1.0" encoding="UTF-8"?>
<svg width="90px" height="88px" viewBox="0 0 90 88" version="1.1" xmlns="http://www.w3.org/2000/svg" xmlns:xlink="http://www.w3.org/1999/xlink">
    <!-- Generator: Sketch 61.2 (89653) - https://sketch.com -->
    <title>当前编辑状态（闪动）</title>
    <desc>Created with Sketch.</desc>
    <defs>
        <rect id="path-1" x="0" y="1.03028697e-13" width="50" height="47.2727273" rx="5"></rect>
        <filter x="-61.0%" y="-64.5%" width="222.0%" height="229.0%" filterUnits="objectBoundingBox" id="filter-2">
            <feMorphology radius="0.5" operator="dilate" in="SourceAlpha" result="shadowSpreadOuter1"></feMorphology>
            <feOffset dx="0" dy="0" in="shadowSpreadOuter1" result="shadowOffsetOuter1"></feOffset>
            <feGaussianBlur stdDeviation="10" in="shadowOffsetOuter1" result="shadowBlurOuter1"></feGaussianBlur>
            <feComposite in="shadowBlurOuter1" in2="SourceAlpha" operator="out" result="shadowBlurOuter1"></feComposite>
            <feColorMatrix values="0 0 0 0 0.219607843   0 0 0 0 0.705882353   0 0 0 0 0.756862745  0 0 0 1 0" type="matrix" in="shadowBlurOuter1"></feColorMatrix>
        </filter>
    </defs>
    <g id="页面-1" stroke="none" stroke-width="1" fill="none" fill-rule="evenodd">
        <g id="搜索引擎-流程设计03" transform="translate(-646.000000, -472.000000)">
            <g id="当前编辑状态（闪动）" transform="translate(666.000000, 492.000000)">
                <g id="矩形备份-7" stroke-dasharray="3">
                    <use fill="black" fill-opacity="1" filter="url(#filter-2)" xlink:href="#path-1"></use>
                    <use stroke="#38B4C1" stroke-width="1" fill="#E5FDFF" fill-rule="evenodd" xlink:href="#path-1"></use>
                </g>
                <g id="任务备份-2" transform="translate(9.000000, 9.000000)" fill="#38B4C1" stroke="#38B4C1" stroke-dasharray="3" stroke-width="2">
                    <path d="M15.3846154,30.7692308 C23.8813089,30.7692308 30.7692308,23.8817657 30.7692308,15.3856356 C30.7692308,6.88746512 23.8813089,0 15.3846154,0 C6.88792187,0 0,6.88746512 0,15.3835952 C0,23.8817657 6.88792192,30.7692308 15.3846154,30.7692308 Z" id="路径"></path>
                </g>
                <g id="铅笔备份" transform="translate(16.000000, 15.000000)" fill="#FFFFFF" fill-rule="nonzero">
                    <path d="M0.1933596,17.7890832 L0.1933596,14.0468718 L3.93557099,17.7890832 L0.1933596,17.7890832 L0.1933596,17.7890832 Z M5.18871698,16.5016598 L1.48078297,12.7937258 L10.9221807,3.11203487 L15.0076932,6.69973436 L5.18871698,16.5016598 L5.18871698,16.5016598 Z M16.1235539,5.63537765 L12.1410317,1.8246115 L13.8404868,0.210937745 L17.8057649,4.05615706 L16.1235539,5.63537765 L16.1235539,5.63537765 Z" id="形状"></path>
                </g>
            </g>
        </g>
    </g>
</svg>