<?xml version="1.0" encoding="UTF-8"?>
<svg width="52px" height="50px" viewBox="0 0 52 50" version="1.1" xmlns="http://www.w3.org/2000/svg" xmlns:xlink="http://www.w3.org/1999/xlink">
    <!-- Generator: Sketch 61.2 (89653) - https://sketch.com -->
    <title>自由节点</title>
    <desc>Created with Sketch.</desc>
    <g id="页面-1" stroke="none" stroke-width="1" fill="none" fill-rule="evenodd">
        <g id="搜索引擎-流程设计03" transform="translate(-551.000000, -248.000000)">
            <g id="自由节点" transform="translate(552.000000, 249.000000)">
                <rect id="矩形备份-2" stroke="#38B4C1" stroke-width="2" fill="#FFFFFF" x="0" y="-1.24344979e-13" width="50" height="47.2727273" rx="5"></rect>
                <g id="编组-40" transform="translate(10.000000, 8.000000)" fill-rule="nonzero">
                    <g id="编组-35" fill="#38B4C1">
                        <g id="任务">
                            <path d="M15.3846154,30.7692308 C23.8813089,30.7692308 30.7692308,23.8817657 30.7692308,15.3856356 C30.7692308,6.88746512 23.8813089,0 15.3846154,0 C6.88792187,0 0,6.88746512 0,15.3835952 C0,23.8817657 6.88792192,30.7692308 15.3846154,30.7692308 Z" id="路径"></path>
                        </g>
                    </g>
                    <rect id="Rectangle-Copy-10" stroke="#FFFFFF" stroke-width="1.5" stroke-linecap="round" stroke-linejoin="round" x="6.92307692" y="8.46153846" width="3.76068376" height="3.76068376"></rect>
                    <rect id="Rectangle-Copy-10" stroke="#FFFFFF" stroke-width="1.5" stroke-linecap="round" stroke-linejoin="round" x="20.0854701" y="20.6837607" width="3.76068376" height="3.76068376"></rect>
                    <path d="M20.0854701,19.7435897 C18.0085018,19.7435897 16.0897436,17.8494098 16.0897436,15.5128205 C16.0897436,13.1762312 14.6410709,11.2820513 12.5641026,11.2820513 L12.5641026,11.2820513" id="Path" stroke="#FFFFFF" stroke-width="1.5" stroke-linecap="round" stroke-linejoin="round" stroke-dasharray="0,2.5"></path>
                    <circle id="Oval" stroke="#FFFFFF" stroke-width="1.5" fill="#FFFFFF" stroke-linecap="round" stroke-linejoin="round" cx="21.025641" cy="10.3418803" r="1.88034188"></circle>
                    <circle id="Oval" stroke="#FFFFFF" stroke-width="1.5" fill="#FFFFFF" stroke-linecap="round" stroke-linejoin="round" cx="9.74358974" cy="22.5641026" r="1.88034188"></circle>
                    <line x1="12.0940171" y1="22.0940171" x2="20.0854701" y2="22.0940171" id="Path-8-Copy" stroke="#FFFFFF" stroke-width="1.5" stroke-linecap="round" stroke-linejoin="round"></line>
                    <line x1="11.1068376" y1="9.87179487" x2="18.7222222" y2="9.87179487" id="Path-8" stroke="#FFFFFF" stroke-width="1.5" stroke-linecap="round" stroke-linejoin="round"></line>
                </g>
            </g>
        </g>
    </g>
</svg>