<?xml version="1.0" encoding="UTF-8"?>
<svg width="27px" height="27px" viewBox="0 0 27 27" version="1.1" xmlns="http://www.w3.org/2000/svg" xmlns:xlink="http://www.w3.org/1999/xlink">
    <!-- Generator: Sketch 61.2 (89653) - https://sketch.com -->
    <title>开始</title>
    <desc>Created with Sketch.</desc>
    <g id="页面-1" stroke="none" stroke-width="1" fill="none" fill-rule="evenodd">
        <g id="搜索引擎-流程设计" transform="translate(-156.000000, -275.000000)" fill="#38B4C1" fill-rule="nonzero">
            <g id="开始" transform="translate(156.000000, 275.000000)">
                <path d="M13.4999163,27 C6.04628163,27 0,20.9594883 0,13.4869746 C0,6.04048535 6.04630803,0 13.4999163,0 C20.953551,0 26.9999166,6.04051172 26.9999166,13.4869746 C27.0258943,20.9594883 20.9796004,27 13.4999163,27 Z M13.4999163,1.53615234 C6.90633366,1.53615234 1.53762639,6.89971289 1.53762639,13.4869746 C1.53762639,20.0742363 6.90633366,25.4377969 13.4999163,25.4377969 C20.1195748,25.4377969 25.4622063,20.0742363 25.4622063,13.4869746 C25.4622063,6.89971289 20.1195748,1.53615234 13.4999163,1.53615234 Z M11.1804309,19.4233359 C10.8416306,19.4233359 10.5028275,19.3191895 10.2161497,19.1629695 C9.61673141,18.8244939 9.25186845,18.1735777 9.25186845,17.4966238 L9.25186845,9.47733381 C9.25186845,8.40983186 10.111902,7.55062277 11.1804283,7.55062277 C11.5192287,7.55062277 11.8580317,7.62873267 12.1447095,7.81098926 L19.1031684,11.8206211 C20.0153245,12.3413546 20.3541275,13.5390393 19.8068317,14.4503209 C19.650462,14.7367239 19.3898462,14.9970894 19.1031684,15.1533097 L12.1707853,19.1629415 C11.8580449,19.3451981 11.5453071,19.4233359 11.1804441,19.4233359" id="形状"></path>
            </g>
        </g>
    </g>
</svg>